# Blender 4.5.3 LTS
# www.blender.org
mtllib Choco_Chumps_box.mtl
o Choco_Chumps_box
v -0.135576 -0.206736 0.049541
v -0.135576 0.206736 0.049541
v -0.135576 -0.206736 -0.049541
v -0.135576 0.206736 -0.049541
v 0.135576 -0.206736 0.049541
v 0.135576 0.206736 0.049541
v 0.135576 -0.206736 -0.049541
v 0.135576 0.206736 -0.049541
vn -1.0000 -0.0000 -0.0000
vn -0.0000 -0.0000 -1.0000
vn 1.0000 -0.0000 -0.0000
vn -0.0000 -0.0000 1.0000
vn -0.0000 -1.0000 -0.0000
vn -0.0000 1.0000 -0.0000
vt 0.662685 0.249598
vt 0.662685 0.746898
vt 0.538484 0.746898
vt 0.538484 0.249598
vt 0.537243 0.247703
vt 0.537243 0.738399
vt 0.251406 0.738399
vt 0.251406 0.247703
vt 0.750797 0.250147
vt 0.750797 0.748112
vt 0.658767 0.748112
vt 0.658767 0.250147
vt 0.537574 0.252413
vt 0.537574 0.743538
vt 0.259504 0.743538
vt 0.259504 0.252413
vt 0.523135 0.368933
vt 0.444187 0.368933
vt 0.444187 0.344220
vt 0.523135 0.344220
vt 0.331786 0.615723
vt 0.265709 0.615723
vt 0.265709 0.596607
vt 0.331786 0.596607
s 0
usemtl cereals_01
f 1/1/1 2/2/1 4/3/1 3/4/1
f 3/5/2 4/6/2 8/7/2 7/8/2
f 7/9/3 8/10/3 6/11/3 5/12/3
f 5/13/4 6/14/4 2/15/4 1/16/4
f 3/17/5 7/18/5 5/19/5 1/20/5
f 8/21/6 4/22/6 2/23/6 6/24/6
