# Blender 4.5.3 LTS
# www.blender.org
mtllib fridge_close.mtl
o fridge_close
v -0.457278 -0.933224 0.399603
v -0.457278 -0.933224 -0.367978
v 0.457278 -0.933224 0.399603
v 0.457278 -0.933224 -0.367978
v -0.271227 0.933224 0.399603
v -0.457278 0.747173 0.399603
v -0.402785 0.878731 0.399603
v -0.457278 0.747173 -0.367978
v -0.271227 0.933224 -0.367978
v -0.402785 0.878731 -0.367978
v 0.457278 0.747173 0.399603
v 0.271227 0.933224 0.399603
v 0.402785 0.878731 0.399603
v 0.271227 0.933224 -0.367978
v 0.457278 0.747173 -0.367978
v 0.402785 0.878731 -0.367978
v -0.420363 -0.896810 0.373197
v -0.427040 -0.903252 -0.336750
v 0.420363 -0.896810 0.373197
v 0.427040 -0.903252 -0.336750
v -0.261144 0.882533 0.399603
v -0.406587 0.737090 0.399603
v -0.366239 0.842184 0.399603
v -0.419453 0.739649 -0.335132
v -0.263703 0.895398 -0.335132
v -0.374411 0.850357 -0.336882
v 0.406587 0.737090 0.399603
v 0.261144 0.882533 0.399603
v 0.366239 0.842184 0.399603
v 0.263703 0.895398 -0.335132
v 0.419452 0.739649 -0.335132
v 0.374411 0.850357 -0.336882
v -0.427438 -0.903384 -0.339493
v -0.420732 -0.896678 0.399603
v 0.427438 -0.903384 -0.339493
v 0.420732 -0.896678 0.399603
v -0.427040 -0.437148 -0.339599
v 0.427040 -0.437148 -0.339599
v -0.420363 -0.474988 0.370619
v -0.420761 -0.431090 0.328076
v -0.420480 -0.443789 0.358046
v 0.420761 -0.431090 0.328076
v 0.420363 -0.474988 0.370619
v 0.420480 -0.443789 0.358046
v 0.420363 0.824584 0.373197
v -0.420363 0.824584 0.373197
v 0.427040 0.597769 -0.339599
v -0.427040 0.597769 -0.339599
v 0.420363 0.635608 0.370619
v 0.420761 0.591710 0.328076
v 0.420480 0.604409 0.358046
v -0.420761 0.591710 0.328076
v -0.420363 0.635608 0.370619
v -0.420480 0.604409 0.358046
v 0.312928 0.892503 0.373197
v -0.312928 0.892503 0.373197
v 0.406869 -0.115106 0.321607
v -0.406869 -0.115106 0.321607
v -0.420052 -0.111015 -0.332846
v 0.420052 -0.111015 -0.332846
v 0.413897 -0.126918 0.321465
v -0.413897 -0.126918 0.321465
v -0.420052 -0.122827 -0.332987
v 0.420051 -0.122827 -0.332987
v 0.420761 -0.113423 0.328218
v -0.420761 -0.113423 0.328218
v -0.427040 -0.107365 -0.339457
v 0.427040 -0.107365 -0.339457
v 0.420761 -0.130568 0.328076
v -0.420761 -0.130568 0.328076
v -0.427040 -0.124510 -0.339599
v 0.427040 -0.124510 -0.339599
v 0.406869 -0.113363 0.321607
v -0.406869 -0.113363 0.321607
v -0.420052 -0.107425 -0.332846
v 0.420052 -0.107425 -0.332846
v -0.413897 -0.130508 0.321465
v 0.413897 -0.130508 0.321465
v -0.420052 -0.124570 -0.332987
v 0.420051 -0.124570 -0.332987
v 0.406869 0.269571 0.321607
v -0.406869 0.269571 0.321607
v -0.420052 0.273662 -0.332846
v 0.420052 0.273662 -0.332846
v 0.413897 0.257758 0.321465
v -0.413897 0.257758 0.321465
v -0.420052 0.261850 -0.332987
v 0.420051 0.261850 -0.332987
v 0.420761 0.271253 0.328218
v -0.420761 0.271253 0.328218
v -0.427040 0.277312 -0.339457
v 0.427040 0.277312 -0.339457
v 0.420761 0.254109 0.328076
v -0.420761 0.254109 0.328076
v -0.427040 0.260167 -0.339599
v 0.427040 0.260167 -0.339599
v 0.406869 0.271313 0.321607
v -0.406869 0.271313 0.321607
v -0.420052 0.277252 -0.332846
v 0.420052 0.277252 -0.332846
v -0.413897 0.254169 0.321465
v 0.413897 0.254169 0.321465
v -0.420052 0.260107 -0.332987
v 0.420051 0.260107 -0.332987
v 0.440125 -0.898218 -0.399603
v -0.440125 -0.898218 -0.399603
v -0.261053 0.898218 -0.399603
v -0.387676 0.845769 -0.399603
v -0.440125 0.719146 -0.399603
v 0.387676 0.845769 -0.399603
v 0.261053 0.898218 -0.399603
v 0.440125 0.719146 -0.399603
vn -0.5773 -0.5773 0.5774
vn -0.6420 -0.6750 -0.3637
vn 0.5773 -0.5773 0.5774
vn 0.6420 -0.6750 -0.3637
vn -0.1456 0.7319 0.6657
vn -0.7319 0.1456 0.6657
vn -0.5490 0.5490 0.6302
vn -0.9285 0.2107 -0.3057
vn -0.1815 0.9000 -0.3962
vn -0.6442 0.6688 -0.3711
vn 0.7319 0.1456 0.6657
vn 0.1456 0.7319 0.6657
vn 0.5490 0.5490 0.6302
vn 0.1815 0.9000 -0.3962
vn 0.9285 0.2107 -0.3057
vn 0.6442 0.6688 -0.3711
vn -0.4157 0.8623 0.2891
vn -0.4090 0.8592 -0.3075
vn 0.4157 0.8623 0.2891
vn 0.4090 0.8592 -0.3075
vn 0.1249 -0.6550 0.7452
vn 0.6550 -0.1272 0.7448
vn 0.4194 -0.4194 0.8051
vn 0.7382 -0.1454 0.6588
vn 0.1416 -0.7403 0.6572
vn 0.5500 -0.5515 0.6271
vn -0.6550 -0.1272 0.7448
vn -0.1249 -0.6550 0.7452
vn -0.4194 -0.4194 0.8051
vn -0.1416 -0.7403 0.6572
vn -0.7382 -0.1454 0.6588
vn -0.5500 -0.5515 0.6271
vn 0.5815 0.5889 0.5613
vn 0.3033 0.3022 0.9037
vn -0.5815 0.5889 0.5613
vn -0.3033 0.3022 0.9037
vn -0.5805 0.5724 -0.5792
vn 0.5805 0.5724 -0.5792
vn -0.6638 0.1436 0.7340
vn -0.6633 0.7330 0.1507
vn -0.6274 0.5437 0.5575
vn 0.6633 0.7330 0.1507
vn 0.6638 0.1436 0.7340
vn 0.6274 0.5437 0.5575
vn -0.0000 -0.0100 0.9999
vn -0.0000 -1.0000 -0.0091
vn -0.0000 -0.1973 0.9804
vn -0.0000 -0.9811 0.1934
vn -0.0000 -0.7020 0.7122
vn -0.0000 -0.0000 1.0000
vn 0.5707 -0.5804 0.5809
vn -0.5707 -0.5804 0.5809
vn -0.5840 -0.5744 -0.5736
vn 0.5840 -0.5743 -0.5736
vn 0.5747 0.5759 0.5815
vn -0.5747 0.5759 0.5815
vn -0.5800 0.5788 -0.5732
vn 0.5800 0.5788 -0.5732
vn -0.5744 -0.5728 -0.5848
vn 0.5744 -0.5728 -0.5848
vn 0.5803 -0.5819 0.5699
vn -0.5803 -0.5819 0.5699
vn -0.5743 0.5829 -0.5748
vn 0.5743 0.5829 -0.5748
vn 0.5803 0.5719 0.5798
vn -0.5803 0.5719 0.5798
vn 0.3043 -0.9039 0.3005
vn -0.3043 -0.9039 0.3005
vn -0.2986 -0.9051 -0.3026
vn 0.2986 -0.9051 -0.3026
vn -0.2994 0.9016 0.3122
vn 0.2994 0.9016 0.3122
vn -0.3036 0.9073 -0.2908
vn 0.3036 0.9073 -0.2908
vn 0.4312 -0.2695 -0.8611
vn -0.4312 -0.2695 -0.8611
vn -0.0721 0.3813 -0.9216
vn -0.3441 0.2887 -0.8934
vn -0.5188 0.0623 -0.8526
vn 0.3441 0.2887 -0.8934
vn 0.0721 0.3813 -0.9216
vn 0.5188 0.0623 -0.8526
vt 0.709198 0.784086
vt 0.562928 0.784086
vt 0.562928 0.563027
vt 0.709198 0.563027
vt 0.530377 0.563027
vt 0.530377 0.109918
vt 0.751436 0.109918
vt 0.751436 0.563027
vt 0.751436 0.563027
vt 0.751436 0.109918
vt 0.972495 0.109918
vt 0.972495 0.563027
vt 0.125000 0.500000
vt 0.375000 0.500000
vt 0.375000 0.750000
vt 0.125000 0.750000
vt 0.521270 0.553588
vt 0.521270 0.117475
vt 0.530377 0.784086
vt 0.751436 0.071521
vt 0.972495 0.071521
vt 0.747595 0.563027
vt 0.747595 0.784086
vt 0.530377 0.071521
vt 0.751436 0.071521
vt 0.811937 0.521481
vt 0.812661 0.304536
vt 0.960371 0.304536
vt 0.961094 0.521481
vt 0.518089 0.550713
vt 0.271869 0.548394
vt 0.272837 0.037492
vt 0.517638 0.037293
vt 0.764310 0.548394
vt 0.518089 0.550713
vt 0.518541 0.037293
vt 0.763342 0.037492
vt 0.271869 0.572052
vt 0.000000 0.572052
vt 0.002540 0.049532
vt 0.016864 0.014325
vt 0.052071 0.000000
vt 0.219798 0.000000
vt 0.255005 0.014325
vt 0.269329 0.049532
vt 0.990093 0.305295
vt 0.992404 0.522846
vt 0.763457 0.002236
vt 0.518089 0.000000
vt 0.780627 0.522846
vt 0.782939 0.305295
vt 0.518089 -0.000000
vt 0.272722 0.002236
vt 0.530377 0.584658
vt 0.278941 0.584658
vt 0.288988 0.574611
vt 0.520330 0.574611
vt 0.479227 0.071521
vt 0.515396 0.086503
vt 0.505348 0.096550
vt 0.476455 0.085457
vt 0.530377 0.122672
vt 0.516441 0.125444
vt 0.293923 0.086503
vt 0.330091 0.071521
vt 0.332864 0.085457
vt 0.303970 0.096550
vt 0.278941 0.122672
vt 0.292877 0.125444
vt 0.740185 0.552963
vt 0.504093 0.550840
vt 0.503182 0.550713
vt 0.748968 0.552846
vt 0.504093 0.822455
vt 0.503182 0.822582
vt 0.740185 0.820332
vt 0.748968 0.820449
vt 0.894114 0.552924
vt 0.894114 0.820293
vt 0.759968 0.820293
vt 0.759968 0.552924
vt 0.517654 0.550713
vt 0.739689 0.552710
vt 0.739689 0.820331
vt 0.517654 0.822328
vt 0.370477 0.745070
vt 0.370522 0.504930
vt 0.370480 0.730772
vt 0.370478 0.743674
vt 0.370477 0.745070
vt 0.912544 0.000000
vt 0.912544 0.271615
vt 0.764310 0.271615
vt 0.764310 -0.000000
vt 0.750053 0.820330
vt 0.750053 0.552887
vt 0.749867 0.552799
vt 0.749867 0.820242
vt 0.129478 0.504930
vt 0.129523 0.745070
vt 0.129522 0.743674
vt 0.129520 0.730772
vt 0.035062 0.982516
vt 0.035062 0.715147
vt 0.095161 0.715147
vt 0.095161 0.982516
vt 0.337450 0.984736
vt 0.115644 0.982739
vt 0.115644 0.715117
vt 0.337450 0.713120
vt 0.105091 0.715110
vt 0.105091 0.982553
vt 0.105413 0.982649
vt 0.105413 0.715206
vt 0.013462 0.948349
vt 0.013462 0.749314
vt 0.866942 0.000000
vt 0.866942 0.404711
vt 0.865914 0.404720
vt 0.864824 0.000018
vt 0.864824 0.000000
vt 0.864823 0.488610
vt 0.862704 0.488610
vt 0.862705 0.000000
vt 0.857080 0.404700
vt 0.859199 0.809379
vt 0.857080 0.809372
vt 0.856052 0.404696
vt 0.867971 0.480313
vt 0.867971 0.000000
vt 0.869000 0.000000
vt 0.869000 0.480313
vt 0.859557 0.404696
vt 0.856052 0.000000
vt 0.858171 0.000000
vt 0.860586 0.404696
vt 0.866942 0.495875
vt 0.866942 -0.000000
vt 0.867971 -0.000000
vt 0.867971 0.495875
vt 0.404661 1.000000
vt 0.000000 0.992219
vt 0.000000 0.511906
vt 0.404661 0.504125
vt 0.404661 1.000000
vt 0.404661 0.504125
vt 0.809322 0.507757
vt 0.809322 0.996367
vt 0.408758 0.004125
vt 0.004088 0.011906
vt 0.000000 0.003706
vt 0.412846 0.000000
vt 0.004088 0.492219
vt 0.408758 0.500000
vt 0.412846 0.504125
vt 0.000000 0.500419
vt 0.821603 0.007758
vt 0.416934 0.004125
vt 0.412846 -0.000000
vt 0.825691 0.003706
vt 0.416934 0.500000
vt 0.821603 0.496367
vt 0.825691 0.500419
vt 0.412846 0.504125
vt 0.825691 0.504125
vt 0.825691 0.000000
vt 0.835811 0.000000
vt 0.835811 0.504125
vt 0.856052 0.000000
vt 0.856052 0.412813
vt 0.845931 0.412813
vt 0.845931 -0.000000
vt 0.845931 0.000000
vt 0.845931 0.496713
vt 0.835811 0.496713
vt 0.835811 0.000000
vt 0.845931 0.825627
vt 0.845931 0.412813
vt 0.856052 0.412813
vt 0.856052 0.825627
vt 0.862705 -0.000000
vt 0.862705 0.495875
vt 0.860586 0.495875
vt 0.860586 -0.000000
vt 0.864824 0.809414
vt 0.864824 0.404729
vt 0.865852 0.404720
vt 0.866943 0.809396
vt 0.032220 0.575034
vt 0.032220 0.130377
vt 0.046640 0.095565
vt 0.081452 0.081145
vt 0.224993 0.081145
vt 0.259806 0.095565
vt 0.274225 0.130377
vt 0.274225 0.575034
vt 0.129689 0.489700
vt 0.370311 0.489700
vt 0.981603 0.117475
vt 0.981603 0.553588
vt 0.562015 0.793194
vt 0.530685 0.793194
vt 0.521270 0.115130
vt 0.521270 0.078173
vt 0.706455 0.793194
vt 0.565672 0.793194
vt 0.747232 0.793194
vt 0.710276 0.793194
vt 0.981603 0.078173
vt 0.981603 0.115130
s 1
usemtl fridge_ext
f 14/1/14 9/2/9 5/3/5 12/4/12
f 4/5/4 15/6/15 11/7/11 3/8/3
f 1/9/1 6/10/6 8/11/8 2/12/2
f 2/13/2 4/14/4 3/15/3 1/16/1
f 15/6/15 4/5/4 105/17/75 112/18/82
f 5/3/5 9/2/9 10/19/10 7/5/7
f 7/20/7 10/21/10 8/11/8 6/10/6
f 14/1/14 12/4/12 13/22/13 16/23/16
f 16/24/16 13/25/13 11/7/11 15/6/15
f 1/54/1 3/55/3 36/56/36 34/57/34
f 5/58/5 7/59/7 23/60/23 21/61/21
f 7/59/7 6/62/6 22/63/22 23/60/23
f 13/64/13 12/65/12 28/66/28 29/67/29
f 11/68/11 13/64/13 29/67/29 27/69/27
f 3/55/3 11/68/11 27/69/27 36/56/36
f 12/65/12 5/58/5 21/61/21 28/66/28
f 6/62/6 1/54/1 34/57/34 22/63/22
f 19/86/19 20/87/20 38/87/38 42/88/42 44/89/44 43/90/43
f 18/99/18 17/100/17 39/100/39 41/101/41 40/102/40 37/99/37
f 106/189/76 109/190/79 108/191/78 107/192/77 111/193/81 110/194/80 112/195/82 105/196/75
f 4/14/4 2/13/2 106/197/76 105/198/75
f 2/12/2 8/11/8 109/199/79 106/200/76
f 10/19/10 9/2/9 107/201/77 108/202/78
f 16/24/16 15/6/15 112/203/82 110/204/80
f 9/2/9 14/1/14 111/205/81 107/206/77
f 14/1/14 16/23/16 110/207/80 111/208/81
f 8/11/8 10/21/10 108/209/78 109/210/79
usemtl Fridge_int
f 30/26/30 28/27/28 21/28/21 25/29/25
f 35/30/35 36/31/36 27/32/27 31/33/31
f 34/34/34 33/35/33 24/36/24 22/37/22
f 33/38/33 35/39/35 31/40/31 32/41/32 30/42/30 25/43/25 26/44/26 24/45/24
f 21/28/21 23/46/23 26/47/26 25/29/25
f 23/48/23 22/37/22 24/36/24 26/49/26
f 30/26/30 32/50/32 29/51/29 28/27/28
f 32/52/32 31/33/31 27/32/27 29/53/29
f 17/70/17 18/71/18 33/72/33 34/73/34
f 18/71/18 20/74/20 35/75/35 33/72/33
f 20/74/20 19/76/19 36/77/36 35/75/35
f 19/76/19 17/70/17 34/73/34 36/77/36
f 17/78/17 19/79/19 43/80/43 39/81/39
f 37/82/37 40/83/40 42/84/42 38/85/38
f 20/91/20 18/92/18 37/93/37 38/94/38
f 39/81/39 43/80/43 44/95/44 41/96/41
f 41/97/41 44/98/44 42/84/42 40/83/40
f 45/103/45 46/104/45 53/105/47 49/106/47
f 47/107/46 50/108/48 52/109/48 48/110/46
f 49/106/47 53/105/47 54/111/49 51/112/49
f 51/113/49 54/114/49 52/109/48 50/108/48
f 46/104/45 45/103/45 55/115/50 56/116/50
usemtl fridge_plate_glass
f 60/141/54 57/142/51 58/143/52 59/144/53
f 64/145/58 63/146/57 62/147/56 61/148/55
f 84/141/54 81/142/51 82/143/52 83/144/53
f 88/145/58 87/146/57 86/147/56 85/148/55
usemtl fridge_plate
f 76/117/70 73/118/67 57/119/51 60/120/54
f 77/121/71 78/122/72 61/123/55 62/124/56
f 79/125/73 77/126/71 62/127/56 63/128/57
f 73/129/67 74/130/68 58/131/52 57/132/51
f 74/133/68 75/134/69 59/135/53 58/136/52
f 80/137/74 79/138/73 63/139/57 64/140/58
f 75/149/69 74/150/68 66/151/60 67/152/61
f 73/153/67 76/154/70 68/155/62 65/156/59
f 74/150/68 73/153/67 65/156/59 66/151/60
f 76/154/70 75/149/69 67/152/61 68/155/62
f 77/157/71 79/158/73 71/159/65 70/160/64
f 80/161/74 78/162/72 69/163/63 72/164/66
f 78/162/72 77/157/71 70/160/64 69/163/63
f 79/158/73 80/161/74 72/164/66 71/159/65
f 71/165/65 72/166/66 68/167/62 67/168/61
f 72/169/66 69/170/63 65/171/59 68/172/62
f 69/173/63 70/174/64 66/175/60 65/176/59
f 70/177/64 71/178/65 67/179/61 66/180/60
f 75/181/69 76/182/70 60/183/54 59/184/53
f 78/185/72 80/186/74 64/187/58 61/188/55
f 100/117/70 97/118/67 81/119/51 84/120/54
f 101/121/71 102/122/72 85/123/55 86/124/56
f 103/125/73 101/126/71 86/127/56 87/128/57
f 97/129/67 98/130/68 82/131/52 81/132/51
f 98/133/68 99/134/69 83/135/53 82/136/52
f 104/137/74 103/138/73 87/139/57 88/140/58
f 99/149/69 98/150/68 90/151/60 91/152/61
f 97/153/67 100/154/70 92/155/62 89/156/59
f 98/150/68 97/153/67 89/156/59 90/151/60
f 100/154/70 99/149/69 91/152/61 92/155/62
f 101/157/71 103/158/73 95/159/65 94/160/64
f 104/161/74 102/162/72 93/163/63 96/164/66
f 102/162/72 101/157/71 94/160/64 93/163/63
f 103/158/73 104/161/74 96/164/66 95/159/65
f 95/165/65 96/166/66 92/167/62 91/168/61
f 96/169/66 93/170/63 89/171/59 92/172/62
f 93/173/63 94/174/64 90/175/60 89/176/59
f 94/177/64 95/178/65 91/179/61 90/180/60
f 99/181/69 100/182/70 84/183/54 83/184/53
f 102/185/72 104/186/74 88/187/58 85/188/55
