# Blender 4.5.3 LTS
# www.blender.org
mtllib fridge_door.mtl
o fridge_door
v -0.824958 0.089598 -0.000554
v -0.089598 0.089598 -0.000060
v -0.710683 1.776849 -0.000477
v -0.824958 1.662574 -0.000554
v -0.791487 1.743379 -0.000531
v -0.089598 1.662574 -0.000060
v -0.203873 1.776849 -0.000137
v -0.123069 1.743379 -0.000083
v -0.728512 1.866447 0.010592
v -0.705189 1.748812 0.122905
v -0.721712 1.831993 0.090003
v -0.770111 1.721920 0.122862
v -0.860070 1.811954 0.010504
v -0.833753 1.785584 0.089928
v -0.000007 0.000000 0.011081
v -0.117718 0.117635 0.123300
v -0.034515 0.034455 0.090464
v -0.914563 0.000000 0.010467
v -0.797003 0.117635 0.122844
v -0.880162 0.034455 0.089897
v -0.797003 1.656997 0.122844
v -0.914563 1.680396 0.010467
v -0.880162 1.673543 0.089897
v -0.209533 1.748812 0.123238
v -0.186058 1.866447 0.010956
v -0.192965 1.831993 0.090358
v -0.054501 1.811954 0.011045
v -0.144610 1.721920 0.123282
v -0.080924 1.785584 0.090433
v -0.117718 1.656997 0.123300
v -0.000007 1.680396 0.011081
v -0.034515 1.673543 0.090464
v -0.764676 1.089422 0.171374
v -0.764676 1.126118 0.171374
v -0.764619 1.089422 0.086559
v -0.764619 1.126118 0.086559
v -0.727980 1.089422 0.171399
v -0.727980 1.126118 0.171399
v -0.727923 1.089422 0.086584
v -0.727923 1.126118 0.086584
v -0.764691 1.089422 0.194071
v -0.764691 1.126118 0.194071
v -0.727996 1.126118 0.194096
v -0.727996 1.089422 0.194096
v -0.764676 0.870817 0.171374
v -0.727980 0.870817 0.171399
v -0.764691 0.870817 0.194071
v -0.727996 0.870817 0.194096
v -0.764676 0.841193 0.171374
v -0.727980 0.841193 0.171399
v -0.764691 0.841193 0.194071
v -0.727996 0.841193 0.194096
v -0.764637 0.870817 0.112660
v -0.727941 0.870817 0.112684
v -0.764637 0.841193 0.112660
v -0.727941 0.841193 0.112684
v -0.914556 0.000000 -0.000614
v 0.000000 0.000000 0.000000
v -0.860063 1.811954 -0.000577
v -0.728505 1.866447 -0.000489
v -0.914556 1.680396 -0.000614
v -0.186051 1.866447 -0.000125
v -0.054493 1.811954 -0.000037
v 0.000000 1.680396 0.000000
v -0.791482 1.743379 -0.008568
v -0.123063 1.743379 -0.008119
v -0.824952 1.662574 -0.008590
v -0.089593 1.662574 -0.008097
v -0.824952 0.089598 -0.008590
v -0.089593 0.089598 -0.008097
v -0.710677 1.776849 -0.008514
v -0.203868 1.776849 -0.008173
v 0.000000 0.840198 0.000000
v -0.914556 0.840198 -0.000614
v -0.914563 0.840198 0.010467
v -0.880162 0.853999 0.089897
v -0.797003 0.887316 0.122844
v -0.000007 0.840198 0.011081
v -0.034515 0.853999 0.090464
v -0.117718 0.887316 0.123300
v -0.089598 0.876086 -0.000060
v -0.824958 0.876086 -0.000554
v -0.089593 0.876086 -0.008097
v -0.824952 0.876086 -0.008590
v 0.000000 1.260297 0.000000
v -0.880162 1.263771 0.089897
v -0.797003 1.272157 0.122844
v -0.000007 1.260297 0.011081
v -0.089598 1.269330 -0.000060
v -0.089593 1.269330 -0.008097
v -0.914556 1.260297 -0.000614
v -0.914563 1.260297 0.010467
v -0.034515 1.263771 0.090464
v -0.117718 1.272157 0.123300
v -0.824958 1.269330 -0.000554
v -0.824952 1.269330 -0.008590
v -0.914556 0.420099 -0.000614
v -0.914563 0.420099 0.010467
v -0.034515 0.444227 0.090464
v -0.117718 0.502476 0.123300
v -0.824958 0.482842 -0.000554
v -0.824952 0.482842 -0.008590
v 0.000000 0.420099 0.000000
v -0.880162 0.444227 0.089897
v -0.797003 0.502476 0.122844
v -0.000007 0.420099 0.011081
v -0.089598 0.482842 -0.000060
v -0.089593 0.482842 -0.008097
v -0.914556 0.854796 -0.000614
v -0.914563 0.854796 0.010467
v -0.034515 0.868238 0.090464
v -0.117718 0.900689 0.123300
v -0.824958 0.889751 -0.000554
v -0.824952 0.889751 -0.008590
v 0.000000 0.854796 0.000000
v -0.880162 0.868238 0.089897
v -0.797003 0.900689 0.122844
v -0.000007 0.854796 0.011081
v -0.089598 0.889751 -0.000060
v -0.089593 0.889751 -0.008097
v 0.000000 1.274041 0.000000
v -0.880162 1.277177 0.089897
v -0.797003 1.284747 0.122844
v -0.000007 1.274041 0.011081
v -0.089598 1.282195 -0.000060
v -0.089593 1.282195 -0.008097
v -0.914556 1.274041 -0.000614
v -0.914563 1.274041 0.010467
v -0.034515 1.277177 0.090464
v -0.117718 1.284747 0.123300
v -0.824958 1.282195 -0.000554
v -0.824952 1.282195 -0.008590
v 0.000000 0.434292 0.000000
v -0.880162 0.458070 0.089897
v -0.797003 0.515477 0.122844
v -0.000007 0.434292 0.011081
v -0.089598 0.496127 -0.000060
v -0.089593 0.496127 -0.008097
v -0.914556 0.434292 -0.000614
v -0.914563 0.434292 0.010467
v -0.034515 0.458070 0.090464
v -0.117718 0.515477 0.123300
v -0.824958 0.496127 -0.000554
v -0.824952 0.496127 -0.008590
v -0.824867 0.889751 -0.135533
v -0.824867 0.876086 -0.135533
v -0.089508 0.876086 -0.135040
v -0.824867 1.282195 -0.135533
v -0.824867 1.269330 -0.135533
v -0.089508 1.269330 -0.135040
v -0.824867 0.496127 -0.135533
v -0.824867 0.482842 -0.135533
v -0.089508 0.482842 -0.135040
v -0.089508 0.889751 -0.135040
v -0.089508 1.282195 -0.135040
v -0.089508 0.496127 -0.135040
v -0.824952 0.948944 -0.008590
v -0.089593 0.948944 -0.008097
v -0.089593 1.341389 -0.008097
v -0.824952 1.341389 -0.008590
v -0.089593 0.555321 -0.008097
v -0.824952 0.555321 -0.008590
v -0.824867 0.948944 -0.135533
v -0.824867 1.341389 -0.135533
v -0.824867 0.555321 -0.135533
v -0.089508 0.948944 -0.135040
v -0.089508 1.341389 -0.135040
v -0.089508 0.555321 -0.135040
vn -0.1451 0.7319 -0.6658
vn -0.5486 0.5490 -0.6306
vn -0.6919 0.6918 0.2068
vn -0.1912 0.9606 0.2016
vn 0.1865 -0.0000 0.9825
vn 0.2013 0.0402 0.9787
vn 0.1519 0.1525 0.9766
vn 0.0395 0.2020 0.9786
vn -0.0408 0.2020 0.9785
vn -0.1532 0.1525 0.9763
vn -0.2026 0.0402 0.9784
vn -0.1878 -0.0000 0.9822
vn -0.5770 -0.5773 -0.5778
vn 0.5777 -0.5773 -0.5770
vn 0.6855 -0.6857 0.2447
vn -0.6859 -0.6857 0.2438
vn -0.7314 0.1456 -0.6662
vn -0.9608 0.1911 0.2011
vn 0.7076 -0.0000 -0.7066
vn 0.7323 0.1456 -0.6652
vn 0.9605 0.1911 0.2024
vn 0.9790 -0.0000 0.2039
vn 0.5494 0.5490 -0.6299
vn 0.6916 0.6918 0.2077
vn 0.1460 0.7319 -0.6656
vn 0.1909 0.9606 0.2019
vn -0.7066 -0.0000 -0.7076
vn -0.9793 -0.0000 0.2026
vn -0.4901 -0.4897 0.7211
vn -0.6959 -0.0000 0.7182
vn -0.1426 -0.1420 0.9795
vn -0.1397 0.7001 0.7002
vn 0.1388 0.7001 0.7004
vn 0.6996 0.1393 0.7008
vn 0.5089 0.5093 0.6940
vn 0.4892 -0.4897 0.7218
vn 0.1413 -0.1420 0.9797
vn -0.5098 0.5093 0.6933
vn -0.7006 0.1393 0.6999
vn 0.6949 -0.0000 0.7191
vn 0.1287 0.6445 -0.7537
vn 0.4208 0.4203 -0.8039
vn 0.3021 -0.3015 -0.9043
vn 0.5777 -0.5774 -0.5770
vn 0.9047 -0.3015 -0.3009
vn -0.6440 0.1282 -0.7542
vn -0.9043 0.3015 -0.3021
vn -1.0000 -0.0000 -0.0007
vn 0.0007 -0.0000 -1.0000
vn 1.0000 -0.0000 0.0007
vn -0.0000 -1.0000 -0.0000
vn -0.0000 1.0000 -0.0000
vn -0.0007 -0.0000 1.0000
vn -0.3009 -0.3015 -0.9047
vn -0.1277 0.6445 -0.7539
vn -0.4197 0.4203 -0.8045
vn 0.6450 0.1282 -0.7533
vn 0.9047 0.3015 -0.3009
vn -0.5770 -0.5773 -0.5777
vn -0.9043 -0.3015 -0.3021
vn -0.5770 -0.5774 -0.5777
vn -0.7076 -0.0000 0.7066
vn 0.7066 -0.0000 0.7076
vt 0.725345 0.429791
vt 0.719991 0.492808
vt 0.714549 0.492808
vt 0.719903 0.429791
vt 0.521300 0.683981
vt 0.521300 0.856576
vt 0.508744 0.886678
vt 0.478429 0.899146
vt 0.246991 0.899146
vt 0.216676 0.886678
vt 0.204119 0.856576
vt 0.204119 0.683981
vt 0.677593 0.930885
vt 0.677593 0.492808
vt 0.683046 0.492808
vt 0.683046 0.930885
vt 0.782275 0.930885
vt 0.777352 0.864116
vt 0.782798 0.863930
vt 0.787721 0.930700
vt 0.776313 0.673063
vt 0.771906 0.863930
vt 0.770867 0.672877
vt 0.772430 0.930885
vt 0.766984 0.930700
vt 0.719991 0.106935
vt 0.725345 0.169952
vt 0.719903 0.169952
vt 0.714549 0.106935
vt 0.780576 0.271572
vt 0.781650 0.074057
vt 0.787096 0.073872
vt 0.786022 0.271386
vt 0.126272 0.301048
vt 0.127208 0.128896
vt 0.164045 0.144564
vt 0.163131 0.312484
vt 0.165280 0.296176
vt 0.165280 0.106184
vt 0.204119 0.142847
vt 0.204119 0.321279
vt 0.059854 0.212638
vt 0.059854 0.439112
vt 0.022914 0.436250
vt 0.022914 0.215500
vt 0.486155 0.939617
vt 0.239265 0.939617
vt 0.560140 0.866151
vt 0.538470 0.918099
vt 0.073386 0.865807
vt 0.077040 0.816245
vt 0.113969 0.817504
vt 0.109678 0.875700
vt 0.018941 0.168723
vt 0.055188 0.157713
vt 0.027730 0.875861
vt 0.027730 0.494037
vt 0.064597 0.508421
vt 0.064597 0.861477
vt 0.560140 0.106184
vt 0.521300 0.142847
vt 0.186949 0.918099
vt 0.165280 0.866151
vt 0.160391 0.816245
vt 0.164045 0.865807
vt 0.127753 0.875700
vt 0.123462 0.817504
vt 0.018940 0.483027
vt 0.055188 0.494037
vt 0.113063 0.650984
vt 0.076157 0.653818
vt 0.560140 0.682375
vt 0.307936 0.641544
vt 0.286480 0.632657
vt 0.277593 0.297953
vt 0.277593 0.193536
vt 0.472850 0.510201
vt 0.472849 0.611201
vt 0.472849 0.510201
vt 0.257803 0.067446
vt 0.257803 0.024941
vt 0.360715 0.024941
vt 0.360715 0.067446
vt 0.272768 0.397478
vt 0.230263 0.397478
vt 0.230263 0.354973
vt 0.272768 0.354973
vt 0.360715 0.067446
vt 0.360715 0.024941
vt 0.463626 0.024941
vt 0.463626 0.067446
vt 0.533671 0.024941
vt 0.576176 0.024941
vt 0.576176 0.278154
vt 0.533671 0.278154
vt 0.618681 0.127852
vt 0.576176 0.127852
vt 0.618681 0.024941
vt 0.576176 0.408605
vt 0.533671 0.408605
vt 0.533671 0.305694
vt 0.576176 0.305694
vt 0.491166 0.067446
vt 0.491166 0.024941
vt 0.533671 0.024941
vt 0.533671 0.067446
vt 0.230263 0.067446
vt 0.230263 0.024941
vt 0.491166 0.320659
vt 0.533671 0.320659
vt 0.533671 0.354973
vt 0.491166 0.354973
vt 0.257803 0.320659
vt 0.230263 0.320659
vt 0.463626 0.320659
vt 0.618681 0.155392
vt 0.576176 0.155392
vt 0.463626 0.354973
vt 0.618681 0.226635
vt 0.576176 0.226635
vt 0.257803 0.354973
vt 0.230263 0.354973
vt 0.307082 0.354973
vt 0.307082 0.397478
vt 0.329045 0.320659
vt 0.329045 0.354973
vt 0.576176 0.226635
vt 0.618681 0.297877
vt 0.576176 0.297877
vt 0.392384 0.354973
vt 0.392384 0.320659
vt 0.472849 0.193536
vt 0.253802 0.169746
vt 0.496640 0.169746
vt 0.442507 0.641544
vt 0.463962 0.632657
vt 0.482171 0.650865
vt 0.447239 0.665335
vt 0.496640 0.615933
vt 0.303204 0.665335
vt 0.268272 0.650865
vt 0.277593 0.611201
vt 0.253802 0.615933
vt 0.277593 0.510201
vt 0.253802 0.508036
vt 0.472849 0.297953
vt 0.496640 0.281293
vt 0.936943 0.869698
vt 0.898881 0.885464
vt 0.660155 0.885464
vt 0.622094 0.869698
vt 0.952708 0.831636
vt 0.606328 0.831636
vt 0.606328 0.652465
vt 0.952708 0.652465
vt 0.606328 0.282199
vt 0.952708 0.282199
vt 0.952708 0.461173
vt 0.606328 0.461173
vt 0.472850 0.405997
vt 0.472849 0.402369
vt 0.496640 0.392840
vt 0.496640 0.396716
vt 0.277593 0.301480
vt 0.277593 0.402369
vt 0.253802 0.392840
vt 0.253802 0.285061
vt 0.472850 0.301480
vt 0.472849 0.301480
vt 0.277593 0.405997
vt 0.277593 0.405997
vt 0.560140 0.302594
vt 0.560140 0.486167
vt 0.521300 0.499711
vt 0.521300 0.327307
vt 0.111191 0.306864
vt 0.112096 0.473200
vt 0.075213 0.480404
vt 0.074331 0.318157
vt 0.165280 0.492770
vt 0.165280 0.486167
vt 0.204119 0.499711
vt 0.204119 0.505912
vt 0.125303 0.479182
vt 0.125335 0.473200
vt 0.162218 0.480404
vt 0.162186 0.486240
vt 0.779464 0.475950
vt 0.779501 0.469086
vt 0.784947 0.468901
vt 0.784910 0.475764
vt 0.774165 0.278245
vt 0.775203 0.469086
vt 0.769757 0.468901
vt 0.768719 0.278059
vt 0.204119 0.327307
vt 0.778392 0.673063
vt 0.778427 0.666601
vt 0.783873 0.666415
vt 0.783838 0.672877
vt 0.124368 0.650984
vt 0.124399 0.645352
vt 0.161304 0.648325
vt 0.161275 0.653818
vt 0.165280 0.682375
vt 0.165280 0.676159
vt 0.204119 0.678144
vt 0.277593 0.506785
vt 0.472849 0.506785
vt 0.496640 0.504387
vt 0.496640 0.508036
vt 0.606328 0.467610
vt 0.952708 0.467610
vt 0.952708 0.646405
vt 0.606328 0.646405
vt 0.253802 0.504387
vt 0.253802 0.396716
vt 0.472849 0.405997
vt 0.560140 0.492770
vt 0.560140 0.676159
vt 0.521300 0.678144
vt 0.521300 0.505912
vt 0.112128 0.479182
vt 0.113032 0.645352
vt 0.076127 0.648325
vt 0.075245 0.486240
vt 0.775241 0.475950
vt 0.776278 0.666601
vt 0.770832 0.666415
vt 0.769794 0.475764
vt 0.521300 0.321279
vt 0.773054 0.074057
vt 0.774129 0.271572
vt 0.768683 0.271386
vt 0.767608 0.073872
vt 0.110223 0.128896
vt 0.111159 0.301048
vt 0.074300 0.312484
vt 0.073386 0.144564
vt 0.560140 0.296176
vt 0.253802 0.281293
vt 0.606328 0.090709
vt 0.952708 0.090709
vt 0.952708 0.275941
vt 0.606328 0.275941
vt 0.496640 0.285061
vt 0.277593 0.301480
vt 0.165280 0.302594
vt 0.126240 0.306864
vt 0.163100 0.318157
vt 0.780539 0.278245
vt 0.785985 0.278059
vt 0.277593 0.297953
vt 0.277593 0.301480
vt 0.277593 0.506784
vt 0.277593 0.510201
vt 0.472849 0.405997
vt 0.472849 0.402368
vt 0.472849 0.510201
vt 0.472849 0.506785
vt 0.277593 0.402369
vt 0.277593 0.405998
vt 0.472850 0.301480
vt 0.472850 0.297953
vt 0.277593 0.317197
vt 0.277593 0.317197
vt 0.472849 0.421713
vt 0.472849 0.421714
vt 0.606328 0.680347
vt 0.952708 0.680347
vt 0.277593 0.421715
vt 0.277593 0.421716
vt 0.277593 0.525919
vt 0.277593 0.525920
vt 0.606328 0.495492
vt 0.952708 0.495492
vt 0.606328 0.310081
vt 0.952708 0.310081
s 1
usemtl fridge_door
f 60/1/1 59/2/2 13/3/3 9/4/4
f 130/5/5 30/6/6 28/7/7 24/8/8 10/9/9 12/10/10 21/11/11 123/12/12
f 57/13/13 58/14/14 15/15/15 18/16/16
f 59/17/2 61/18/17 22/19/18 13/20/3
f 121/21/19 64/18/20 31/22/21 124/23/22
f 64/18/20 63/24/23 27/25/24 31/22/21
f 63/26/23 62/27/25 25/28/26 27/29/24
f 97/30/27 57/31/13 18/32/16 98/33/28
f 98/34/28 18/35/16 20/36/29 104/37/30
f 104/38/30 20/39/29 19/40/31 105/41/12
f 25/42/26 9/43/4 11/44/32 26/45/33
f 26/46/33 11/47/32 10/9/9 24/8/8
f 28/7/7 30/6/6 32/48/34 29/49/35
f 29/50/35 32/51/34 31/52/21 27/53/24
f 24/8/8 28/7/7 29/49/35 26/46/33
f 26/45/33 29/54/35 27/55/24 25/42/26
f 18/56/16 15/57/15 17/58/36 20/59/29
f 20/39/29 17/60/36 16/61/37 19/40/31
f 21/11/11 12/10/10 14/62/38 23/63/39
f 23/64/39 14/65/38 13/66/3 22/67/18
f 12/10/10 10/9/9 11/47/32 14/62/38
f 14/68/38 11/44/32 9/43/4 13/69/3
f 124/70/22 31/52/21 32/51/34 129/71/40
f 129/72/40 32/48/34 30/6/6 130/5/5
f 62/27/25 60/1/1 9/4/4 25/28/26
f 7/73/41 8/74/42 66/74/23 72/73/25
f 107/75/19 2/76/43 70/76/44 108/75/45
f 131/77/27 4/78/46 67/78/17 132/79/47
f 1/132/54 2/76/43 58/133/14 57/134/13
f 3/135/55 5/136/56 59/137/2 60/138/1
f 5/136/56 4/78/46 61/139/17 59/137/2
f 8/74/42 7/73/41 62/140/25 63/141/23
f 6/142/57 8/74/42 63/141/23 64/143/20
f 125/144/19 6/142/57 64/143/20 121/145/19
f 7/73/41 3/135/55 60/138/1 62/140/25
f 101/146/27 1/132/54 57/134/13 97/147/27
f 65/148/2 71/149/1 72/150/25 66/151/23
f 67/152/17 65/148/2 66/151/23 68/153/20
f 126/154/58 132/155/47 67/152/17 68/153/20
f 5/136/56 3/135/55 71/135/1 65/136/2
f 3/135/55 7/73/41 72/73/25 71/135/1
f 8/74/42 6/142/57 68/142/20 66/74/23
f 4/78/46 5/136/56 65/136/2 67/78/17
f 2/76/43 1/132/54 69/132/59 70/76/44
f 138/156/58 144/157/47 84/158/60 83/159/45
f 113/160/27 82/161/27 74/162/27 109/163/27
f 137/164/19 81/165/19 73/166/19 133/167/19
f 143/168/27 82/161/27 84/161/60 144/169/47
f 119/170/19 81/165/19 83/165/45 120/171/58
f 141/172/40 79/173/40 80/174/5 142/175/5
f 136/176/22 78/177/22 79/178/40 141/179/40
f 116/180/30 76/181/30 77/182/12 117/183/12
f 110/184/28 75/185/28 76/186/30 116/187/30
f 109/188/27 74/189/27 75/190/28 110/191/28
f 133/192/19 73/193/19 78/194/22 136/195/22
f 142/175/5 80/174/5 77/182/12 135/196/12
f 127/197/27 91/198/27 92/199/28 128/200/28
f 128/201/28 92/202/28 86/203/30 122/204/30
f 122/205/30 86/206/30 87/207/12 123/12/12
f 125/144/19 89/208/19 90/208/45 126/144/58
f 131/77/27 95/209/27 91/210/27 127/211/27
f 120/212/58 114/213/47 96/214/60 90/215/45
f 119/170/19 89/208/19 85/216/19 115/217/19
f 113/160/27 95/209/27 96/209/60 114/218/47
f 111/219/40 93/220/40 94/221/5 112/222/5
f 118/223/22 88/224/22 93/225/40 111/226/40
f 115/227/19 85/228/19 88/229/22 118/230/22
f 112/222/5 94/221/5 87/207/12 117/183/12
f 16/61/37 100/231/5 105/41/12 19/40/31
f 58/232/14 103/233/19 106/234/22 15/235/15
f 15/236/15 106/237/22 99/238/40 17/239/36
f 17/60/36 99/240/40 100/231/5 16/61/37
f 1/132/54 101/146/27 102/146/60 69/132/59
f 2/76/43 107/75/19 103/241/19 58/133/14
f 70/242/44 69/243/59 102/244/60 108/245/45
f 143/168/27 101/146/27 97/147/27 139/246/27
f 137/164/19 107/75/19 108/75/45 138/247/58
f 134/248/30 104/38/30 105/41/12 135/196/12
f 140/249/28 98/34/28 104/37/30 134/250/30
f 139/251/27 97/30/27 98/33/28 140/252/28
f 80/174/5 112/222/5 117/183/12 77/182/12
f 73/193/19 115/227/19 118/230/22 78/194/22
f 78/177/22 118/223/22 111/226/40 79/178/40
f 79/173/40 111/219/40 112/222/5 80/174/5
f 82/161/27 113/160/27 114/218/47 84/161/60
f 81/165/19 119/170/19 115/217/19 73/166/19
f 144/157/47 138/156/58 156/156/52 151/157/52
f 91/198/27 109/188/27 110/191/28 92/199/28
f 92/202/28 110/184/28 116/187/30 86/203/30
f 86/206/30 116/180/30 117/183/12 87/207/12
f 89/208/19 119/170/19 120/171/58 90/208/45
f 95/209/27 113/160/27 109/163/27 91/210/27
f 4/78/46 131/77/27 127/211/27 61/139/17
f 6/142/57 125/144/19 126/144/58 68/142/20
f 23/63/39 122/205/30 123/12/12 21/11/11
f 22/67/18 128/201/28 122/204/30 23/64/39
f 61/18/17 127/197/27 128/200/28 22/19/18
f 138/247/58 108/75/45 153/253/44 156/254/19
f 89/208/19 125/144/19 121/145/19 85/216/19
f 95/209/27 131/77/27 132/79/47 96/209/60
f 93/220/40 129/72/40 130/5/5 94/221/5
f 88/224/22 124/70/22 129/71/40 93/225/40
f 85/228/19 121/21/19 124/23/22 88/229/22
f 94/221/5 130/5/5 123/12/12 87/207/12
f 74/189/27 139/251/27 140/252/28 75/190/28
f 75/185/28 140/249/28 134/250/30 76/186/30
f 76/181/30 134/248/30 135/196/12 77/182/12
f 81/165/19 137/164/19 138/247/58 83/165/45
f 82/161/27 143/168/27 139/246/27 74/162/27
f 100/231/5 142/175/5 135/196/12 105/41/12
f 103/233/19 133/192/19 136/195/22 106/234/22
f 106/237/22 136/176/22 141/179/40 99/238/40
f 99/240/40 141/172/40 142/175/5 100/231/5
f 101/146/27 143/168/27 144/169/47 102/146/60
f 107/75/19 137/164/19 133/167/19 103/241/19
f 126/144/58 90/208/45 150/255/44 155/256/19
f 147/159/44 146/158/61 145/213/27 154/212/19
f 150/215/44 149/214/61 148/155/27 155/154/19
f 153/245/44 152/244/61 151/157/27 156/156/19
f 90/215/45 96/214/60 149/214/61 150/215/44
f 132/155/47 126/154/58 155/154/52 148/155/52
f 84/161/60 114/218/47 145/257/27 146/258/61
f 96/209/60 132/79/47 148/259/27 149/260/61
f 108/245/45 102/244/60 152/244/61 153/245/44
f 120/171/58 83/165/45 147/261/44 154/262/19
f 114/213/47 120/212/58 154/212/52 145/213/52
f 83/159/45 84/158/60 146/158/61 147/159/44
f 102/146/60 144/169/47 151/263/27 152/264/61
f 148/155/48 132/155/48 160/155/48 164/155/48
f 156/254/62 138/247/48 161/265/48 168/266/62
f 114/218/50 145/257/63 163/267/63 157/268/50
f 151/157/48 144/157/48 162/157/48 165/157/48
f 154/262/62 120/171/48 158/271/48 166/272/62
f 155/256/62 126/144/48 159/273/48 167/274/62
s 0
usemtl handle_fridge
f 33/80/48 34/81/48 36/82/48 35/83/48
f 35/84/49 36/85/49 40/86/49 39/87/49
f 39/88/50 40/89/50 38/90/50 37/91/50
f 33/92/49 37/93/49 46/94/49 45/95/49
f 35/96/51 39/97/51 37/93/51 33/98/51
f 40/99/52 36/100/52 34/101/52 38/102/52
f 44/103/53 43/104/53 42/105/53 41/106/53
f 38/102/52 34/101/52 42/95/52 43/94/52
f 37/91/50 38/90/50 43/104/50 44/103/50
f 34/81/48 33/80/48 41/107/48 42/108/48
f 48/109/53 47/110/53 51/111/53 52/112/53
f 41/107/48 33/80/48 45/113/48 47/114/48
f 37/91/50 44/103/50 48/109/50 46/115/50
f 44/103/53 41/106/53 47/110/53 48/109/53
f 49/116/51 50/117/51 52/97/51 51/96/51
f 46/115/50 48/109/50 52/112/50 50/118/50
f 50/117/51 49/116/51 55/119/51 56/120/51
f 47/114/48 45/113/48 49/121/48 51/122/48
f 53/84/49 54/87/49 56/123/49 55/124/49
f 49/121/48 45/113/48 53/125/48 55/126/48
f 45/127/52 46/119/52 54/128/52 53/129/52
f 46/115/50 50/118/50 56/130/50 54/131/50
s 1
usemtl fridge_plate_glass
f 148/155/53 155/154/62 167/269/62 164/270/53
f 145/213/63 154/212/62 166/275/62 163/276/63
f 151/157/53 156/156/62 168/277/62 165/278/53
