# Blender 3.6.14
# www.blender.org
mtllib Balloon.mtl
o Cone.001
v 0.000000 -5.013668 -0.082445
v 0.071399 -5.013668 0.041222
v -0.071399 -5.013668 0.041222
v 0.000000 -0.698040 0.000000
v 0.000000 -1.154084 0.000000
v 0.723607 -0.516129 -0.525726
v -0.276388 -0.516129 -0.850649
v -0.894426 -0.516125 0.000000
v -0.276388 -0.516129 0.850649
v 0.723607 -0.516129 0.525725
v 0.276388 0.516129 -0.850649
v -0.723607 0.516129 -0.525725
v -0.723607 0.516129 0.525726
v 0.276388 0.516129 0.850649
v 0.894426 0.516124 -0.000000
v 0.000000 1.154084 -0.000000
v -0.162456 -0.981727 -0.499995
v 0.425323 -0.981727 -0.309012
v 0.262869 -0.606746 -0.809012
v 0.850648 -0.606744 0.000000
v 0.425323 -0.981727 0.309011
v -0.525730 -0.981724 0.000000
v -0.688190 -0.606744 -0.499997
v -0.162455 -0.981727 0.499995
v -0.688189 -0.606744 0.499997
v 0.262869 -0.606746 0.809012
v 0.951058 -0.000000 -0.309013
v 0.951058 0.000000 0.309012
v 0.000000 -0.000000 -1.000000
v 0.587785 -0.000000 -0.809017
v -0.951058 -0.000000 -0.309012
v -0.587786 -0.000000 -0.809017
v -0.587785 0.000000 0.809017
v -0.951058 0.000000 0.309013
v 0.587786 0.000000 0.809017
v 0.000000 0.000000 1.000000
v 0.688189 0.606744 -0.499997
v -0.262869 0.606745 -0.809012
v -0.850648 0.606744 -0.000000
v -0.262869 0.606745 0.809012
v 0.688190 0.606744 0.499997
v 0.162455 0.981727 -0.499995
v 0.525730 0.981724 -0.000000
v -0.425323 0.981726 -0.309011
v -0.425323 0.981726 0.309012
v 0.162456 0.981727 0.499995
v 0.000000 -1.353537 -0.149923
v 0.129837 -1.353537 0.074961
v -0.129837 -1.353537 0.074961
v 0.000000 -1.053692 0.000000
vn 0.8660 0.0096 -0.5000
vn -0.0000 -1.0000 -0.0000
vn -0.0000 0.0096 1.0000
vn -0.8660 0.0096 -0.5000
vn -0.1955 -0.7744 -0.6017
vn 0.5119 -0.7744 -0.3719
vn 0.7930 -0.1977 -0.5762
vn 0.9591 -0.2830 -0.0000
vn -0.6327 -0.7744 -0.0000
vn -0.1955 -0.7744 0.6018
vn 0.5119 -0.7744 0.3719
vn 0.9511 -0.0000 -0.3090
vn -0.3029 -0.1977 -0.9323
vn -0.0000 -0.0000 -1.0000
vn 0.2964 -0.2830 -0.9122
vn -0.9803 -0.1977 -0.0000
vn -0.9511 -0.0000 -0.3090
vn -0.7760 -0.2830 -0.5638
vn -0.3029 -0.1977 0.9323
vn -0.5878 -0.0000 0.8090
vn -0.7759 -0.2830 0.5638
vn 0.7931 -0.1977 0.5762
vn 0.5878 -0.0000 0.8090
vn 0.2964 -0.2830 0.9122
vn 0.5878 -0.0000 -0.8090
vn -0.5878 -0.0000 -0.8090
vn -0.9511 -0.0000 0.3090
vn -0.0000 -0.0000 1.0000
vn 0.9511 -0.0000 0.3090
vn 0.3029 0.1977 -0.9323
vn 0.1955 0.7744 -0.6018
vn 0.7759 0.2830 -0.5638
vn -0.7931 0.1977 -0.5762
vn -0.5119 0.7744 -0.3719
vn -0.2964 0.2830 -0.9122
vn -0.7930 0.1977 0.5762
vn -0.5119 0.7744 0.3719
vn -0.9591 0.2830 -0.0000
vn 0.3029 0.1977 0.9323
vn 0.1955 0.7744 0.6018
vn -0.2964 0.2830 0.9122
vn 0.9803 0.1977 0.0001
vn 0.6327 0.7744 -0.0000
vn 0.7760 0.2830 0.5638
vn -0.0000 1.0000 -0.0000
vn 0.8402 0.2425 -0.4851
vn -0.0000 0.2425 0.9701
vn -0.8402 0.2425 -0.4851
vt 0.755861 0.774514
vt 0.755861 0.763770
vt 0.765166 0.758398
vt 0.778245 0.774514
vt 0.787550 0.758398
vt 0.768940 0.758398
vt 0.746557 0.758398
vt 0.500000 0.340379
vt 0.476212 0.364218
vt 0.562279 0.364218
vt 0.605956 0.428615
vt 0.624558 0.416082
vt 0.423019 0.364218
vt 0.500000 -0.086262
vt 0.412630 0.001294
vt 0.217259 0.001295
vt 0.728741 0.001294
vt 0.639261 0.500000
vt 0.459529 0.428614
vt 0.500000 0.500000
vt 0.538491 0.416081
vt 0.369031 0.428615
vt 0.360739 0.500000
vt 0.399230 0.416082
vt 0.351357 0.237812
vt 0.183885 0.500000
vt 0.129887 0.191781
vt 0.889161 0.237812
vt 0.816115 0.500000
vt 0.641373 0.191780
vt 0.586068 0.500000
vt 0.413932 0.500000
vt 0.018972 0.237814
vt -0.011485 0.500000
vt 1.011485 0.500000
vt 0.540471 0.571385
vt 0.523788 0.635782
vt 0.600770 0.583918
vt 0.394044 0.571385
vt 0.437721 0.635782
vt 0.461509 0.583919
vt 0.110839 0.762188
vt 0.271259 0.998706
vt 0.042516 0.808219
vt 0.648643 0.762188
vt 0.587370 0.998706
vt 0.358627 0.808220
vt 0.981028 0.762185
vt 0.782741 0.998705
vt 0.870113 0.808219
vt 0.500000 1.086262
vt 0.375442 0.583918
vt 0.500000 0.659621
vt 0.576981 0.635781
vt 0.630969 0.571385
vt 0.957484 0.191781
vt 0.401696 0.380779
vt 0.401696 0.286407
vt 0.483424 0.239221
vt 0.598304 0.380779
vt 0.680032 0.239221
vt 0.516576 0.239221
vt 0.319968 0.239221
s 0
usemtl Material.005
f 1/1/1 4/2/1 2/3/1
f 1/4/2 2/5/2 3/6/2
f 2/3/3 4/2/3 3/7/3
f 3/7/4 4/2/4 1/1/4
s 1
f 5/8/2 17/9/5 18/10/6
f 6/11/7 20/12/8 18/10/6
f 5/8/2 22/13/9 17/9/5
f 5/14/2 24/15/10 22/16/9
f 5/14/2 21/17/11 24/15/10
f 6/11/7 27/18/12 20/12/8
f 7/19/13 29/20/14 19/21/15
f 8/22/16 31/23/17 23/24/18
f 9/25/19 33/26/20 25/27/21
f 10/28/22 35/29/23 26/30/24
f 6/11/7 30/31/25 27/18/12
f 7/19/13 32/32/26 29/20/14
f 8/33/16 34/34/27 31/34/17
f 9/25/19 36/20/28 33/26/20
f 10/28/22 28/35/29 35/29/23
f 11/36/30 42/37/31 37/38/32
f 12/39/33 44/40/34 38/41/35
f 13/42/36 45/43/37 39/44/38
f 14/45/39 46/46/40 40/47/41
f 15/48/42 43/49/43 41/50/44
f 43/49/43 16/51/45 46/46/40
f 43/49/43 46/46/40 41/50/44
f 41/50/44 46/46/40 14/45/39
f 46/46/40 16/51/45 45/43/37
f 46/46/40 45/43/37 40/47/41
f 40/47/41 45/43/37 13/42/36
f 45/43/37 16/51/45 44/43/34
f 45/43/37 44/43/34 39/44/38
f 39/52/38 44/40/34 12/39/33
f 44/40/34 16/53/45 42/37/31
f 44/40/34 42/37/31 38/41/35
f 38/41/35 42/37/31 11/36/30
f 42/37/31 16/53/45 43/54/43
f 42/37/31 43/54/43 37/38/32
f 37/38/32 43/54/43 15/55/42
f 28/35/29 15/48/42 41/50/44
f 28/35/29 41/50/44 35/29/23
f 35/29/23 41/50/44 14/45/39
f 36/20/28 14/45/39 40/47/41
f 36/20/28 40/47/41 33/26/20
f 33/26/20 40/47/41 13/42/36
f 34/34/27 13/42/36 39/44/38
f 34/34/27 39/44/38 31/34/17
f 31/23/17 39/52/38 12/39/33
f 32/32/26 12/39/33 38/41/35
f 32/32/26 38/41/35 29/20/14
f 29/20/14 38/41/35 11/36/30
f 30/31/25 11/36/30 37/38/32
f 30/31/25 37/38/32 27/18/12
f 27/18/12 37/38/32 15/55/42
f 35/29/23 14/45/39 36/20/28
f 35/29/23 36/20/28 26/30/24
f 26/30/24 36/20/28 9/25/19
f 33/26/20 13/42/36 34/34/27
f 33/26/20 34/34/27 25/27/21
f 25/27/21 34/34/27 8/33/16
f 31/23/17 12/39/33 32/32/26
f 31/23/17 32/32/26 23/24/18
f 23/24/18 32/32/26 7/19/13
f 29/20/14 11/36/30 30/31/25
f 29/20/14 30/31/25 19/21/15
f 19/21/15 30/31/25 6/11/7
f 27/35/12 15/48/42 28/35/29
f 27/35/12 28/35/29 20/56/8
f 20/56/8 28/35/29 10/28/22
f 21/17/11 10/28/22 26/30/24
f 21/17/11 26/30/24 24/15/10
f 24/15/10 26/30/24 9/25/19
f 24/15/10 9/25/19 25/27/21
f 24/15/10 25/27/21 22/16/9
f 22/16/9 25/27/21 8/33/16
f 22/13/9 8/22/16 23/24/18
f 22/13/9 23/24/18 17/9/5
f 17/9/5 23/24/18 7/19/13
f 20/56/8 10/28/22 21/17/11
f 20/56/8 21/17/11 18/17/6
f 18/17/6 21/17/11 5/14/2
f 17/9/5 7/19/13 19/21/15
f 17/9/5 19/21/15 18/10/6
f 18/10/6 19/21/15 6/11/7
s 0
f 47/57/46 50/58/46 48/59/46
f 47/60/2 48/61/2 49/62/2
f 48/59/47 50/58/47 49/63/47
f 49/63/48 50/58/48 47/57/48
