# Blender 4.1.1
# www.blender.org
mtllib burger.mtl
o Cube
v -0.498786 -0.563037 0.498786
v -0.498786 -0.321147 1.000000
v -1.000000 -0.321147 0.498786
v -0.498786 0.269232 1.000000
v -0.498786 0.711786 0.498786
v -1.000000 0.269232 0.498786
v -0.498786 -0.563037 -0.498786
v -1.000000 -0.321147 -0.498786
v -0.498786 -0.321147 -1.000000
v -0.498786 0.711786 -0.498786
v -0.498786 0.269232 -1.000000
v -1.000000 0.269232 -0.498786
v 0.498786 -0.563037 0.498786
v 1.000000 -0.321147 0.498786
v 0.498786 -0.321147 1.000000
v 0.498786 0.711786 0.498786
v 0.498786 0.269232 1.000000
v 1.000000 0.269232 0.498786
v 0.498786 -0.563037 -0.498786
v 0.498786 -0.321147 -1.000000
v 1.000000 -0.321147 -0.498786
v 0.498786 0.711786 -0.498786
v 1.000000 0.269232 -0.498786
v 0.498786 0.269232 -1.000000
vn -0.1990 -0.9596 0.1990
vn -0.3039 -0.5500 0.7779
vn -0.7779 -0.5500 0.3039
vn -0.3331 0.4052 0.8514
vn -0.2857 0.9147 0.2857
vn -0.8514 0.4052 0.3331
vn -0.1990 -0.9596 -0.1990
vn -0.7779 -0.5500 -0.3039
vn -0.3039 -0.5500 -0.7779
vn -0.2857 0.9147 -0.2857
vn -0.3331 0.4052 -0.8514
vn -0.8514 0.4052 -0.3331
vn 0.1990 -0.9596 0.1990
vn 0.7779 -0.5500 0.3039
vn 0.3039 -0.5500 0.7779
vn 0.2857 0.9147 0.2857
vn 0.3331 0.4052 0.8514
vn 0.8514 0.4052 0.3331
vn 0.1990 -0.9596 -0.1990
vn 0.3039 -0.5500 -0.7779
vn 0.7779 -0.5500 -0.3039
vn 0.2857 0.9147 -0.2857
vn 0.8514 0.4052 -0.3331
vn 0.3331 0.4052 -0.8514
vt 0.250073 0.076815
vt 0.250073 0.420245
vt 0.104844 0.420245
vt 0.104844 0.076815
vt 0.498493 0.076815
vt 0.498493 0.420245
vt 0.353265 0.420245
vt 0.353265 0.076815
vt 0.658205 0.882326
vt 0.292579 0.882326
vt 0.292579 0.644282
vt 0.658205 0.644282
vt 0.995334 0.076815
vt 0.995334 0.420245
vt 0.850106 0.420245
vt 0.850106 0.076815
vt 0.746914 0.076815
vt 0.746914 0.420245
vt 0.601685 0.420245
vt 0.601685 0.076815
vt 0.380810 0.877573
vt 0.380810 0.999816
vt 0.258566 0.877573
vt 0.292579 0.524680
vt 0.108876 0.644282
vt 0.380810 0.634270
vt 0.258566 0.634270
vt 0.380810 0.512027
vt 0.292579 1.001927
vt 0.108876 0.882326
vt 0.624112 0.877573
vt 0.746355 0.877573
vt 0.624112 0.999816
vt 0.658205 0.524680
vt 0.841908 0.644282
vt 0.624112 0.634270
vt 0.624112 0.512027
vt 0.746355 0.634270
vt 0.841908 0.882326
vt 0.658205 1.001927
vt 0.001652 0.420245
vt 0.001652 0.076815
s 1
usemtl Material.001
f 15/1/15 17/2/17 4/3/4 2/4/2
f 21/5/21 23/6/23 18/7/18 14/8/14
f 22/9/22 10/10/10 5/11/5 16/12/16
f 3/13/3 6/14/6 12/15/12 8/16/8
f 9/17/9 11/18/11 24/19/24 20/20/20
f 1/21/1 2/22/2 3/23/3
f 4/24/4 5/11/5 6/25/6
f 7/26/7 8/27/8 9/28/9
f 10/10/10 11/29/11 12/30/12
f 13/31/13 14/32/14 15/33/15
f 16/12/16 17/34/17 18/35/18
f 19/36/19 20/37/20 21/38/21
f 22/9/22 23/39/23 24/40/24
f 7/26/7 1/21/1 3/23/3 8/27/8
f 2/4/2 4/3/4 6/41/6 3/42/3
f 5/11/5 10/10/10 12/30/12 6/25/6
f 11/18/11 9/17/9 8/16/8 12/15/12
f 19/36/19 7/26/7 9/28/9 20/37/20
f 10/10/10 22/9/22 24/40/24 11/29/11
f 23/6/23 21/5/21 20/20/20 24/19/24
f 13/31/13 19/36/19 21/38/21 14/32/14
f 22/9/22 16/12/16 18/35/18 23/39/23
f 17/2/17 15/1/15 14/8/14 18/7/18
f 1/21/1 13/31/13 15/33/15 2/22/2
f 16/12/16 5/11/5 4/24/4 17/34/17
f 7/26/7 19/36/19 13/31/13 1/21/1
