# Blender 4.0.2
# www.blender.org
mtllib PaperBag.mtl
o Cube.001
v 0.659759 0.733240 0.609813
v 0.617132 0.733240 -0.652918
v -0.617132 0.733240 0.652918
v -0.659759 0.733240 -0.609813
v 0.672151 1.000000 0.664697
v 0.845893 -1.005541 0.621268
v 0.672151 1.000000 -0.664697
v 0.632954 -1.005541 -0.828754
v -0.672151 1.000000 0.664697
v -0.626297 -1.005541 0.850819
v -0.672151 1.000000 -0.664697
v -0.832658 -1.005541 -0.624979
v 0.672151 0.921150 0.000000
v 0.659681 -1.005541 -0.065407
v 0.000000 0.921150 -0.664697
v -0.066824 -1.005541 -0.661649
v -0.672151 0.921150 0.000000
v -0.672736 -1.005541 0.068290
v 0.000000 0.921150 0.664697
v 0.061534 -1.005541 0.639864
v 0.000000 -1.000000 0.000000
v 0.659759 0.732240 0.609813
v 0.617132 0.732240 -0.652918
v -0.617132 0.732240 0.652918
v -0.659759 0.732240 -0.609813
v 0.671444 0.999993 0.663988
v 0.845227 -1.004984 0.620772
v 0.671444 0.999987 -0.663990
v 0.632452 -1.004982 -0.828094
v -0.671453 0.999982 0.663980
v -0.625824 -1.004984 0.850137
v -0.671442 0.999983 -0.663993
v -0.831998 -1.004981 -0.624479
v 0.671154 0.921135 0.000077
v 0.820705 0.005517 0.606860
v 0.659004 -1.004812 -0.065305
v 0.617538 0.005515 -0.804167
v 0.000073 0.921133 -0.663700
v -0.066728 -1.004817 -0.660966
v -0.808020 0.005513 -0.609649
v -0.671154 0.921133 -0.000075
v -0.672051 -1.004819 0.068192
v -0.612443 0.005512 0.825321
v -0.000083 0.921139 0.663699
v 0.061426 -1.004806 0.639194
v 0.000000 -0.999000 0.000000
v 0.055637 0.005528 0.620030
v -0.652325 0.005526 0.063704
v -0.062143 0.005525 -0.641489
v 0.639454 0.005527 -0.060081
v 0.638445 0.733240 -0.021552
v -0.021313 0.733240 -0.631365
v -0.638445 0.733240 0.021552
v 0.021313 0.733240 0.631365
v 0.000000 1.015159 0.000000
vn -0.0000 1.0000 -0.0000
vn -0.2154 0.9765 0.0073
vn -0.2032 0.9541 0.2199
vn 0.0073 0.9760 0.2177
vn -0.0000 -1.0000 -0.0000
vn -0.0037 -1.0000 0.0002
vn -0.0040 -1.0000 -0.0034
vn -0.0003 -1.0000 -0.0038
vn 0.0037 -1.0000 -0.0003
vn 0.0032 -1.0000 -0.0041
vn 0.0041 -1.0000 0.0034
vn 0.0003 -1.0000 0.0038
vn -0.0034 -1.0000 0.0041
vn 0.9936 0.0148 -0.1121
vn 0.6770 -0.7289 -0.1015
vn 0.5023 -0.5587 -0.6600
vn 0.6087 0.0266 -0.7930
vn -0.1058 0.0160 -0.9943
vn -0.0964 -0.7238 -0.6833
vn -0.6608 -0.5596 -0.5001
vn -0.7939 0.0282 -0.6074
vn -0.9941 0.0159 0.1069
vn -0.6855 -0.7215 0.0977
vn -0.4736 -0.5568 0.6823
vn -0.5800 0.0297 0.8141
vn 0.1198 0.0126 0.9927
vn 0.1077 -0.7345 0.6700
vn 0.6660 -0.5568 0.4965
vn 0.7982 0.0241 0.6019
vn 0.0606 -0.6871 0.7240
vn 0.3095 -0.9003 0.3060
vn -0.3068 -0.8969 0.3185
vn -0.7297 -0.6817 0.0538
vn -0.3175 -0.8952 -0.3127
vn -0.0534 -0.6824 -0.7290
vn 0.3099 -0.8970 -0.3154
vn 0.7264 -0.6849 -0.0569
vn 0.0430 -0.9984 0.0372
vn -0.0349 -0.9994 -0.0057
vn 0.0396 -0.9981 -0.0462
vn -0.0054 -0.9995 0.0302
vn -0.0463 -0.9980 -0.0426
vn 0.0297 -0.9995 0.0056
vn -0.0425 -0.9981 0.0454
vn 0.0061 -0.9994 -0.0350
vn 0.2154 0.9765 -0.0073
vn 0.2176 0.9541 0.2057
vn 0.2032 0.9541 -0.2199
vn -0.0073 0.9760 -0.2177
vn -0.2176 0.9541 -0.2057
vt 0.522147 0.805137
vt 0.522147 0.998965
vt 0.270350 0.998965
vt 0.270350 0.805137
vt 0.538749 0.312981
vt 0.538749 0.554181
vt 0.300224 0.554181
vt 0.300224 0.312981
vt 0.538749 0.071781
vt 0.300224 0.071781
vt 0.777274 0.071781
vt 0.777274 0.312981
vt 0.777274 0.554181
vt 0.426177 0.300677
vt 0.850410 0.300677
vt 0.850410 0.599200
vt 0.426177 0.599200
vt 0.503100 0.303987
vt 0.997254 0.303987
vt 0.997254 0.000439
vt 0.503100 0.000439
vt 0.426177 0.300677
vt 0.850410 0.300677
vt 0.850410 0.002154
vt 0.426177 0.002154
vt 0.997254 0.607535
vt 0.503100 0.607535
vt 0.008947 0.303987
vt 0.008947 0.607535
vt 0.008947 0.000439
vt 0.001944 0.300677
vt 0.001944 0.002154
vt 0.001944 0.599200
vt 0.426177 0.599200
vt 0.001944 0.300677
vt 0.001944 0.599200
vt 0.001944 0.002154
vt 0.426177 0.002154
vt 0.850410 0.002154
vt 0.522147 0.611309
vt 0.270350 0.611309
vt 0.773944 0.611309
vt 0.773944 0.805137
vt 0.773944 0.998965
s 1
usemtl Material.001
f 55/1/1 53/2/2 3/3/3 54/4/4
f 21/5/5 14/6/6 6/7/7 20/8/8
f 18/9/9 21/5/5 20/8/8 10/10/10
f 12/11/11 16/12/12 21/5/5 18/9/9
f 16/12/12 8/13/13 14/6/6 21/5/5
f 50/14/14 36/15/15 29/16/16 37/17/17
f 49/18/18 39/19/19 33/20/20 40/21/21
f 48/22/22 42/23/23 31/24/24 43/25/25
f 47/18/26 45/19/27 27/26/28 35/27/29
f 46/5/5 36/6/15 27/7/28 45/8/27
f 42/9/23 46/5/5 45/8/27 31/10/24
f 33/11/20 39/12/19 46/5/5 42/9/23
f 39/12/19 29/13/16 36/6/15 46/5/5
f 44/28/30 47/18/26 35/27/29 26/29/31
f 30/30/32 43/21/25 47/18/26 44/28/30
f 43/21/25 31/20/24 45/19/27 47/18/26
f 41/31/33 48/22/22 43/25/25 30/32/32
f 32/33/34 40/34/21 48/22/22 41/31/33
f 40/34/21 33/16/20 42/23/23 48/22/22
f 38/28/35 49/18/18 40/21/21 32/30/34
f 28/29/36 37/27/17 49/18/18 38/28/35
f 37/27/17 29/26/16 39/19/19 49/18/18
f 34/35/37 50/14/14 37/17/17 28/36/36
f 26/37/31 35/38/29 50/14/14 34/35/37
f 35/38/29 27/39/28 36/15/15 50/14/14
f 5/37/38 26/37/31 34/35/37 13/35/39
f 7/29/40 28/29/36 38/28/35 15/28/41
f 11/33/42 32/33/34 41/31/33 17/31/43
f 9/30/44 30/30/32 44/28/30 19/28/45
f 13/35/39 34/35/37 28/36/36 7/36/40
f 15/28/41 38/28/35 32/30/34 11/30/42
f 17/31/43 41/31/33 30/32/32 9/32/44
f 19/28/45 44/28/30 26/29/31 5/29/38
f 51/40/46 55/1/1 54/4/4 1/41/47
f 2/42/48 52/43/49 55/1/1 51/40/46
f 52/43/49 4/44/50 53/2/2 55/1/1
l 1 22
l 2 23
l 3 24
l 4 25
o Cube.002
v 0.648345 0.982212 0.641150
v 0.648345 0.982205 -0.641150
v -0.648361 0.982201 0.641142
v -0.648350 0.982202 -0.641153
v 0.648065 0.906066 0.000075
v 0.792472 0.021942 0.585987
v 0.596294 0.021940 -0.776505
v 0.000067 0.906064 -0.640870
v -0.780230 0.021939 -0.588678
v -0.648072 0.906064 -0.000071
v -0.591380 0.021938 0.796934
v -0.000084 0.906070 0.640871
v 0.053720 0.021953 0.598704
v -0.629890 0.021951 0.061514
v -0.060009 0.021950 -0.619423
v 0.617455 0.021951 -0.058014
vn -0.0865 -0.0115 -0.9962
vn -0.7052 -0.0073 -0.7089
vn -0.7973 -0.0186 -0.6033
vn -0.0809 -0.0067 -0.9967
vn 0.6994 -0.0190 -0.7145
vn 0.5872 -0.0295 -0.8089
vn 0.9969 -0.0178 -0.0767
vn 0.9973 -0.0133 -0.0728
vn 0.7079 -0.0180 0.7061
vn 0.7923 -0.0272 0.6095
vn 0.0761 -0.0177 0.9969
vn 0.0718 -0.0132 0.9973
vn -0.7076 -0.0139 0.7065
vn -0.6098 -0.0237 0.7922
vn -0.9966 -0.0154 0.0809
vn -0.9971 -0.0108 0.0759
vt 0.008947 0.303987
vt 0.008947 0.607535
vt 0.503100 0.607535
vt 0.503100 0.303987
vt 0.008947 0.000439
vt 0.503100 0.000439
vt 0.001944 0.300677
vt 0.001944 0.002154
vt 0.426177 0.002154
vt 0.426177 0.300677
vt 0.001944 0.599200
vt 0.426177 0.599200
vt 0.001944 0.300677
vt 0.001944 0.599200
vt 0.426177 0.599200
vt 0.426177 0.300677
vt 0.001944 0.002154
vt 0.426177 0.002154
s 1
usemtl Material.001
f 67/45/51 56/46/52 61/47/53 68/48/54
f 58/49/55 67/45/51 68/48/54 66/50/56
f 65/51/57 58/52/55 66/53/56 69/54/58
f 59/55/59 65/51/57 69/54/58 64/56/60
f 63/45/61 59/49/59 64/50/60 70/48/62
f 57/46/63 63/45/61 70/48/62 62/47/64
f 60/57/65 57/58/63 62/59/64 71/60/66
f 56/61/52 60/57/65 71/60/66 61/62/53
